#!OML:ASF X:\für Bonn\!DataBase\2005_08_12_Daniel\c3d\Daniel.ASF
:FULLY-SPECIFIED
:DEGREES
213
root -0.491611 15.6212 -5.0661 170.191 -12.4861 -176.164
lowerback 51.5477 -2.10776 11.104
upperback 11.1677 -2.49707 -0.659173
thorax -8.06785 -3.26478 -4.4159
lowerneck 3.75628 -4.25035 -9.09147
upperneck 8.77004 -6.65607 5.46467
head 2.73935 -3.62973 3.3192
rclavicle 1.13307e-014 2.53575e-014
rhumerus -13.1686 2.74224 -83.5614
rradius 21.7972
rwrist 12.4356
rhand -19.4714 15.3468
rfingers 7.12502
rthumb 6.85014 -14.5224
lclavicle 1.13307e-014 2.53575e-014
lhumerus -13.7996 -6.74882 94.8957
lradius 44.3922
lwrist -24.4348
lhand -16.1124 -11.1519
lfingers 7.12502
lthumb 10.0917 18.5861
rfemur -34.0488 -7.32211 17.143
rtibia 85.2736
rfoot -2.64464 1.86281
rtoes -8.80165
lfemur -24.2551 -1.94235 -20.0428
ltibia 73.1282
lfoot -38.426 -4.90103
ltoes -2.92911
214
root -0.505753 15.7072 -5.14208 170.197 -12.4479 -176.127
lowerback 50.7978 -1.99708 10.7227
upperback 11.1896 -2.54946 -0.694596
thorax -7.98454 -3.25088 -4.29882
lowerneck 3.56334 -4.09328 -9.04029
upperneck 8.96379 -6.43739 5.42275
head 2.81775 -3.52387 3.29519
rclavicle -1.98039e-014 -2.70844e-015
rhumerus -14.027 2.70178 -84.0954
rradius 21.9885
rwrist 12.1548
rhand -19.3631 15.2946
rfingers 7.12502
rthumb 6.95464 -14.5712
lclavicle -1.98039e-014 -2.70844e-015
lhumerus -13.9719 -6.32489 94.6444
lradius 43.7306
lwrist -24.5291
lhand -15.5007 -11.5439
lfingers 7.12502
lthumb 10.6818 18.1646
rfemur -33.9076 -7.33363 17.3905
rtibia 85.0848
rfoot -1.90486 1.13843
rtoes -8.84067
lfemur -23.141 -2.33698 -20.1098
ltibia 71.7974
lfoot -38.3218 -4.4279
ltoes -3.13355
215
root -0.519325 15.79 -5.21974 170.213 -12.4042 -176.093
lowerback 50.0284 -1.89457 10.3514
upperback 11.2029 -2.5974 -0.743996
thorax -7.90085 -3.23253 -4.2026
lowerneck 3.42322 -3.93828 -8.97143
upperneck 9.15699 -6.23151 5.428
head 2.88911 -3.42421 3.28571
rclavicle -1.88845e-014 9.34288e-015
rhumerus -14.8951 2.50416 -84.6364
rradius 22.1332
rwrist 12.0536
rhand -19.288 15.297
rfingers 7.12502
rthumb 7.02715 -14.5663
lclavicle -1.88845e-014 9.34288e-015
lhumerus -14.2272 -6.03792 94.3372
lradius 43.1836
lwrist -24.3496
lhand -14.9152 -11.807
lfingers 7.12502
lthumb 11.2466 17.8716
rfemur -33.8326 -7.34253 17.6441
rtibia 84.9075
rfoot -1.23382 0.483383
rtoes -8.79594
lfemur -22.057 -2.68711 -20.163
ltibia 70.4951
lfoot -38.1882 -4.01037
ltoes -3.23858
216
root -0.532876 15.8681 -5.29744 170.217 -12.3572 -176.039
lowerback 49.2976 -1.82309 10.004
upperback 11.1881 -2.65556 -0.777341
thorax -7.84491 -3.22085 -4.09067
lowerneck 3.34678 -3.75771 -8.972
upperneck 9.32532 -5.99949 5.44315
head 2.94181 -3.31515 3.29532
rclavicle 7.95139e-016 2.14687e-014
rhumerus -15.7634 2.38855 -85.1384
rradius 22.2549
rwrist 11.9156
rhand -19.239 15.3042
rfingers 7.12502
rthumb 7.07443 -14.5575
lclavicle 7.95139e-016 2.14687e-014
lhumerus -14.5173 -5.71493 94.0693
lradius 42.636
lwrist -24.1092
lhand -14.4712 -11.9318
lfingers 7.12502
lthumb 11.6747 17.7229
rfemur -33.8037 -7.37849 17.9177
rtibia 84.7381
rfoot -0.634585 -0.0635703
rtoes -8.91969
lfemur -20.9787 -2.99261 -20.1918
ltibia 69.2287
lfoot -38.0951 -3.6105
ltoes -3.35126
217
root -0.545742 15.9415 -5.37696 170.253 -12.3211 -176.038
lowerback 48.4952 -1.75018 9.64072
upperback 11.2161 -2.73256 -0.836527
thorax -7.72733 -3.21605 -3.99564
lowerneck 3.22334 -3.58359 -8.9683
upperneck 9.48899 -5.77318 5.51257
head 3.0044 -3.20576 3.32255
rclavicle -2.36554e-014 1.86858e-014
rhumerus -16.5697 2.23067 -85.6351
rradius 22.3681
rwrist 11.7787
rhand -19.1723 15.3819
rfingers 7.12502
rthumb 7.13887 -14.4776
lclavicle -2.36554e-014 1.86858e-014
lhumerus -14.8358 -5.53066 93.7492
lradius 42.2046
lwrist -23.701
lhand -14.2198 -11.8695
lfingers 7.12502
lthumb 11.9172 17.7713
rfemur -33.8097 -7.43974 18.1388
rtibia 84.5464
rfoot -0.16053 -0.459466
rtoes -9.36235
lfemur -19.9541 -3.30987 -20.272
ltibia 67.9924
lfoot -37.9938 -3.25541
ltoes -3.54244
218
root -0.55889 16.0123 -5.45746 170.285 -12.2572 -176.004
lowerback 46.7945 -1.56204 9.24893
upperback 12.1714 -2.82344 -0.737378
thorax -7.66057 -3.21432 -3.96937
lowerneck 3.15729 -3.41096 -8.9089
upperneck 9.63424 -5.54852 5.50162
head 3.04427 -3.09838 3.312
rclavicle 1.61016e-014 -1.55052e-014
rhumerus -17.3763 2.145 -86.1195
rradius 22.482
rwrist 11.5802
rhand -19.1106 15.3974
rfingers 7.12502
rthumb 7.19838 -14.4601
lclavicle 1.61016e-014 -1.55052e-014
lhumerus -15.1807 -5.37741 93.4301
lradius 41.7539
lwrist -23.2474
lhand -14.1145 -11.728
lfingers 7.12502
lthumb 12.0187 17.9069
rfemur -33.8036 -7.51377 18.4022
rtibia 84.3012
rfoot 0.192739 -0.688053
rtoes -10.1302
lfemur -18.9308 -3.53731 -20.3011
ltibia 66.7822
lfoot -37.8871 -2.92697
ltoes -3.6283
219
root -0.573008 16.0802 -5.53714 170.339 -12.1916 -176.004
lowerback 46.0666 -1.54273 8.94569
upperback 12.1129 -2.90162 -0.836164
thorax -7.57674 -3.20891 -3.92079
lowerneck 3.08671 -3.23809 -8.87293
upperneck 9.77349 -5.32708 5.54751
head 3.08675 -2.99168 3.32604
rclavicle -4.37326e-015 1.43125e-014
rhumerus -18.1811 1.95232 -86.5962
rradius 22.56
rwrist 11.5623
rhand -19.0655 15.4045
rfingers 7.12502
rthumb 7.24192 -14.4516
lclavicle -4.37326e-015 1.43125e-014
lhumerus -15.5289 -5.28037 93.071
lradius 41.3048
lwrist -22.6929
lhand -14.1148 -11.5051
lfingers 7.12502
lthumb 12.0184 18.1298
rfemur -33.8229 -7.58722 18.6244
rtibia 83.9983
rfoot 0.416107 -0.688585
rtoes -10.8715
lfemur -17.9624 -3.76779 -20.3653
ltibia 65.6086
lfoot -37.7907 -2.65533
ltoes -3.53907
220
root -0.586518 16.144 -5.61707 170.418 -12.1053 -176.01
lowerback 45.321 -1.52007 8.6124
upperback 12.0565 -2.98679 -0.915499
thorax -7.47896 -3.20875 -3.83357
lowerneck 2.97185 -3.05073 -8.84381
upperneck 9.95479 -5.08104 5.53086
head 3.14774 -2.87536 3.31945
rclavicle 9.93923e-016 -1.19271e-015
rhumerus -18.9252 1.95595 -87.0497
rradius 22.6454
rwrist 11.4096
rhand -18.987 15.3962
rfingers 7.12502
rthumb 7.31773 -14.4572
lclavicle 9.93923e-016 -1.19271e-015
lhumerus -15.8806 -5.17325 92.7262
lradius 40.9103
lwrist -22.0221
lhand -14.1953 -11.0879
lfingers 7.12502
lthumb 11.9408 18.5515
rfemur -33.8655 -7.65948 18.8563
rtibia 83.6275
rfoot 0.484819 -0.503178
rtoes -11.2414
lfemur -17.0472 -3.95168 -20.4304
ltibia 64.4792
lfoot -37.6935 -2.35868
ltoes -3.64893
221
root -0.599507 16.2025 -5.69665 170.524 -12.0181 -176.029
lowerback 44.5918 -1.5033 8.30642
upperback 11.9728 -3.05199 -1.00661
thorax -7.40799 -3.19675 -3.77948
lowerneck 2.86407 -2.89165 -8.76612
upperneck 10.1265 -4.87076 5.49043
head 3.20462 -2.77527 3.29456
rclavicle 3.97569e-016 4.37326e-015
rhumerus -19.6672 1.77951 -87.4661
rradius 22.6756
rwrist 11.4009
rhand -18.9242 15.4756
rfingers 7.12502
rthumb 7.37829 -14.3758
lclavicle 3.97569e-016 4.37326e-015
lhumerus -16.2182 -5.14704 92.3674
lradius 40.4383
lwrist -21.3781
lhand -14.3232 -10.7375
lfingers 7.12502
lthumb 11.8175 18.9091
rfemur -33.9292 -7.77339 19.1118
rtibia 83.1426
rfoot 0.40959 -0.138478
rtoes -11.5837
lfemur -16.1907 -4.1072 -20.4937
ltibia 63.3997
lfoot -37.6277 -2.11979
ltoes -3.60653
